<?xml version="1.0" encoding="UTF-8"?>
<!DOCTYPE svg PUBLIC "-//W3C//DTD SVG 1.1//EN" "http://www.w3.org/Graphics/SVG/1.1/DTD/svg11.dtd">
<svg xmlns="http://www.w3.org/2000/svg" version="1.1" width="2000px" height="2000px" style="shape-rendering:geometricPrecision; text-rendering:geometricPrecision; image-rendering:optimizeQuality; fill-rule:evenodd; clip-rule:evenodd" xmlns:xlink="http://www.w3.org/1999/xlink">
<g><path style="opacity:0.993" fill="#acbc9e" d="M 1002.5,50.5 C 1258.74,55.1897 1479.41,145.023 1664.5,320C 1809.4,462.864 1900.57,635.03 1938,836.5C 1963.34,999.442 1947.01,1158.11 1889,1312.5C 1831.04,1466.04 1743.2,1599.54 1625.5,1713C 1554.29,1778.82 1473.29,1829.82 1382.5,1866C 1206.15,1938.88 1023.48,1962.21 834.5,1936C 666.108,1908.12 518.108,1838.45 390.5,1727C 297.055,1642.94 218.555,1547.11 155,1439.5C 87.5769,1297.47 52.4103,1147.8 49.5,990.5C 51.5874,809.761 102.087,644.095 201,493.5C 263.355,398.125 339.522,314.958 429.5,244C 599.441,118.407 790.441,53.907 1002.5,50.5 Z M 963.5,217.5 C 1160.15,211.393 1338.48,264.893 1498.5,378C 1518.19,392.181 1537.53,406.848 1556.5,422C 1635.88,510.174 1696.38,610.34 1738,722.5C 1797.99,896.891 1798.65,1071.56 1740,1246.5C 1710.4,1334.6 1668.07,1415.6 1613,1489.5C 1597.98,1509.19 1581.48,1527.69 1563.5,1545C 1491.17,1616.34 1409.5,1674.67 1318.5,1720C 1152.06,1799.62 979.726,1815.28 801.5,1767C 697.575,1737.7 601.575,1692.36 513.5,1631C 398.484,1544.94 316.651,1434.11 268,1298.5C 210.908,1133.84 202.908,966.843 244,797.5C 255.176,754.495 271.842,713.829 294,675.5C 305.682,655.652 320.516,638.485 338.5,624C 366.5,604 394.5,584 422.5,564C 463.506,534.987 507.173,510.32 553.5,490C 626.431,461.48 702.098,446.147 780.5,444C 836.902,441.418 893.235,442.418 949.5,447C 1026.12,457.094 1097.45,482.094 1163.5,522C 1291.76,601.921 1386.92,710.755 1449,848.5C 1469.66,896.127 1482.32,945.793 1487,997.5C 1486.7,1132.49 1437.86,1246.32 1340.5,1339C 1269.68,1402.92 1187.35,1445.58 1093.5,1467C 1004.39,1490.35 917.054,1485.01 831.5,1451C 747.651,1417.17 678.818,1364.01 625,1291.5C 587.392,1239.25 565.726,1180.92 560,1116.5C 556.094,1014.53 591.594,929.361 666.5,861C 754.504,789.505 853.837,767.171 964.5,794C 1022.09,810.701 1070.93,841.201 1111,885.5C 1132.64,913.448 1147.3,944.781 1155,979.5C 1162.1,1024.76 1152.1,1065.76 1125,1102.5C 1096.56,1140.2 1058.73,1162.03 1011.5,1168C 976.697,1170.8 945.364,1161.8 917.5,1141C 900.901,1127.9 886.567,1112.74 874.5,1095.5C 912.168,1064.33 950.834,1034.49 990.5,1006C 993.6,1004.33 994.1,1002.16 992,999.5C 973.402,978.453 951.569,961.62 926.5,949C 883.449,930.671 843.116,935.338 805.5,963C 776.331,986.494 753.497,1014.99 737,1048.5C 717.849,1095.33 721.515,1140.33 748,1183.5C 766.62,1212.46 789.787,1237.29 817.5,1258C 843.568,1278.04 871.568,1295.04 901.5,1309C 952.993,1326.69 1005.33,1329.69 1058.5,1318C 1132.94,1301.88 1195.78,1266.05 1247,1210.5C 1286.68,1164.82 1305.34,1111.48 1303,1050.5C 1314.12,923.3 1269.95,820.467 1170.5,742C 1126.43,708.948 1079.1,680.948 1028.5,658C 993.175,642.005 957.175,627.672 920.5,615C 831.208,611.437 745.208,626.437 662.5,660C 529.087,720.769 445.254,822.603 411,965.5C 392.665,1047.11 394.998,1128.11 418,1208.5C 450.345,1304.04 500.679,1388.37 569,1461.5C 666.388,1559.27 784.221,1615.43 922.5,1630C 1027.76,1639.78 1131.76,1632.12 1234.5,1607C 1337,1560.5 1423.83,1493.66 1495,1406.5C 1576.87,1298.97 1622.21,1177.31 1631,1041.5C 1636.88,962.226 1629.55,884.226 1609,807.5C 1601.67,782.516 1591.34,758.849 1578,736.5C 1542.58,678.695 1501.58,625.028 1455,575.5C 1381.19,496.638 1297.36,431.138 1203.5,379C 1141.34,345.057 1075.34,322.057 1005.5,310C 994.549,308.256 983.549,306.923 972.5,306C 870.803,300.499 769.136,295.165 667.5,290C 671.833,287 676.167,284 680.5,281C 746.572,252.981 815.239,234.314 886.5,225C 912.247,221.736 937.914,219.236 963.5,217.5 Z"/></g>
</svg>
