<?xml version="1.0" encoding="UTF-8"?>
<!DOCTYPE svg PUBLIC "-//W3C//DTD SVG 1.1//EN" "http://www.w3.org/Graphics/SVG/1.1/DTD/svg11.dtd">
<svg xmlns="http://www.w3.org/2000/svg" version="1.1" width="642px" height="200px" style="shape-rendering:geometricPrecision; text-rendering:geometricPrecision; image-rendering:optimizeQuality; fill-rule:evenodd; clip-rule:evenodd" xmlns:xlink="http://www.w3.org/1999/xlink">
<g><path style="opacity:0.976" fill="#acbc9e" d="M 255.5,29.5 C 260.5,29.5 265.5,29.5 270.5,29.5C 270.5,33.1667 270.5,36.8333 270.5,40.5C 265.5,40.5 260.5,40.5 255.5,40.5C 255.5,36.8333 255.5,33.1667 255.5,29.5 Z"/></g>
<g><path style="opacity:0.968" fill="#acbc9e" d="M 279.5,29.5 C 284.5,29.5 289.5,29.5 294.5,29.5C 294.334,35.8421 294.5,42.1754 295,48.5C 298.175,45.3317 302.008,43.9984 306.5,44.5C 315.144,44.2339 320.644,48.2339 323,56.5C 323.667,64.5 323.667,72.5 323,80.5C 319.222,91.1186 311.722,94.9519 300.5,92C 297.898,91.1166 295.731,89.6166 294,87.5C 293.51,88.7932 293.343,90.1266 293.5,91.5C 288.833,91.5 284.167,91.5 279.5,91.5C 279.5,70.8333 279.5,50.1667 279.5,29.5 Z M 298.5,58.5 C 306.077,57.4094 309.41,60.7428 308.5,68.5C 309.416,76.4218 306.083,79.5884 298.5,78C 297.333,77.5 296.5,76.6667 296,75.5C 293.449,69.1858 294.282,63.5192 298.5,58.5 Z"/></g>
<g><path style="opacity:0.976" fill="#acbc9e" d="M 330.5,29.5 C 335.5,29.5 340.5,29.5 345.5,29.5C 345.5,33.1667 345.5,36.8333 345.5,40.5C 340.5,40.5 335.5,40.5 330.5,40.5C 330.5,36.8333 330.5,33.1667 330.5,29.5 Z"/></g>
<g><path style="opacity:0.908" fill="#acbc9e" d="M 96.5,30.5 C 137.431,27.5311 163.931,45.5311 176,84.5C 180.441,114.778 170.607,139.278 146.5,158C 119.841,173.586 93.5077,173.253 67.5,157C 43.3381,137.861 34.1715,113.027 40,82.5C 49.1767,54.4833 68.0101,37.1499 96.5,30.5 Z M 97.5,43.5 C 115.188,41.4214 131.188,45.5881 145.5,56C 167.441,79.3011 170.274,104.801 154,132.5C 130.991,159.692 104.157,164.192 73.5,146C 61.4258,137.234 54.2591,125.401 52,110.5C 50.4501,99.1101 51.7834,88.1101 56,77.5C 71.447,60.6056 90.2804,55.439 112.5,62C 129.499,69.4865 139.499,82.3199 142.5,100.5C 140.58,119.922 129.913,131.089 110.5,134C 94.9411,134.726 83.9411,128.059 77.5,114C 74.2945,96.5705 81.4612,86.7372 99,84.5C 111.475,84.9745 117.809,91.3078 118,103.5C 113.228,112.489 107.062,113.655 99.5,107C 101.907,104.715 104.407,102.549 107,100.5C 107.507,99.0039 107.007,97.8373 105.5,97C 97.5262,93.0606 91.6928,95.2273 88,103.5C 86.6776,112.351 90.1776,118.518 98.5,122C 109.634,125.621 119.134,123.121 127,114.5C 132.869,102.033 131.035,90.8661 121.5,81C 104.842,68.2506 88.3423,68.4173 72,81.5C 58.0788,104.338 61.9122,123.838 83.5,140C 97.2696,146.961 111.603,148.294 126.5,144C 149.166,131.38 157.999,112.214 153,86.5C 139.64,58.89 117.473,45.7233 86.5,47C 90.2541,45.6912 93.9207,44.5246 97.5,43.5 Z"/></g>
<g><path style="opacity:0.932" fill="#acbc9e" d="M 215.5,31.5 C 221.176,31.3339 226.843,31.5006 232.5,32C 243.528,33.8591 248.862,40.3591 248.5,51.5C 243.167,51.5 237.833,51.5 232.5,51.5C 232.552,48.0477 230.885,45.881 227.5,45C 222.383,43.4494 218.383,44.7827 215.5,49C 216.167,50 216.833,51 217.5,52C 224.86,53.5387 232.193,55.2053 239.5,57C 248.482,61.4731 251.649,68.6397 249,78.5C 246.638,86.1142 241.471,90.6142 233.5,92C 225.768,92.8561 218.102,92.5228 210.5,91C 201.597,88.0292 197.597,81.8625 198.5,72.5C 203.875,72.1718 209.208,72.5052 214.5,73.5C 216.149,77.7845 219.315,79.7845 224,79.5C 227.073,79.4771 229.74,78.4771 232,76.5C 232.825,74.2992 232.325,72.4659 230.5,71C 223.5,69.3333 216.5,67.6667 209.5,66C 202.9,62.8161 199.566,57.4827 199.5,50C 200.797,40.2108 206.131,34.0442 215.5,31.5 Z"/></g>
<g><path style="opacity:0.952" fill="#acbc9e" d="M 366.5,44.5 C 371.844,44.334 377.177,44.5006 382.5,45C 387.188,45.9195 390.688,48.4195 393,52.5C 394.443,65.4258 394.943,78.4258 394.5,91.5C 389.833,91.5 385.167,91.5 380.5,91.5C 380.649,90.448 380.483,89.448 380,88.5C 378.421,90.0412 376.587,91.2078 374.5,92C 357.68,95.8399 350.513,89.3399 353,72.5C 354.99,68.5095 358.157,66.0095 362.5,65C 368.157,64.5006 373.824,64.3339 379.5,64.5C 379.939,57.8147 376.939,55.3147 370.5,57C 369.833,58 369.167,59 368.5,60C 363.844,60.6655 359.177,61.1655 354.5,61.5C 353.876,52.4719 357.876,46.8052 366.5,44.5 Z M 370.5,74.5 C 373.518,74.3354 376.518,74.502 379.5,75C 378.583,78.8843 376.083,80.7176 372,80.5C 366.797,79.4982 366.297,77.4982 370.5,74.5 Z"/></g>
<g><path style="opacity:1" fill="#acbc9e" d="M 255.5,45.5 C 260.5,45.5 265.5,45.5 270.5,45.5C 270.5,60.8333 270.5,76.1667 270.5,91.5C 265.5,91.5 260.5,91.5 255.5,91.5C 255.5,76.1667 255.5,60.8333 255.5,45.5 Z"/></g>
<g><path style="opacity:1" fill="#acbc9e" d="M 330.5,45.5 C 335.5,45.5 340.5,45.5 345.5,45.5C 345.5,60.8333 345.5,76.1667 345.5,91.5C 340.5,91.5 335.5,91.5 330.5,91.5C 330.5,76.1667 330.5,60.8333 330.5,45.5 Z"/></g>
<g><path style="opacity:1" fill="#acbc9e" d="M 257.5,105.5 C 262.5,105.5 267.5,105.5 272.5,105.5C 272.5,126.167 272.5,146.833 272.5,167.5C 267.5,167.5 262.5,167.5 257.5,167.5C 257.5,146.833 257.5,126.167 257.5,105.5 Z"/></g>
<g><path style="opacity:0.976" fill="#acbc9e" d="M 280.5,105.5 C 285.5,105.5 290.5,105.5 295.5,105.5C 295.5,109.167 295.5,112.833 295.5,116.5C 290.5,116.5 285.5,116.5 280.5,116.5C 280.5,112.833 280.5,109.167 280.5,105.5 Z"/></g>
<g><path style="opacity:0.976" fill="#acbc9e" d="M 586.5,105.5 C 591.5,105.5 596.5,105.5 601.5,105.5C 601.5,109.167 601.5,112.833 601.5,116.5C 596.5,116.5 591.5,116.5 586.5,116.5C 586.5,112.833 586.5,109.167 586.5,105.5 Z"/></g>
<g><path style="opacity:0.946" fill="#acbc9e" d="M 216.5,107.5 C 222.509,107.334 228.509,107.501 234.5,108C 246.264,110.93 251.597,118.43 250.5,130.5C 245.167,130.5 239.833,130.5 234.5,130.5C 234.527,124.527 231.527,121.527 225.5,121.5C 221.552,121.414 218.719,123.08 217,126.5C 216.333,134.167 216.333,141.833 217,149.5C 218.719,152.92 221.552,154.586 225.5,154.5C 231.527,154.473 234.527,151.473 234.5,145.5C 239.833,145.5 245.167,145.5 250.5,145.5C 251.597,157.57 246.264,165.07 234.5,168C 224.992,169.644 215.992,168.311 207.5,164C 204.193,161.222 202.026,157.722 201,153.5C 200.333,143.167 200.333,132.833 201,122.5C 203.42,114.578 208.587,109.578 216.5,107.5 Z"/></g>
<g><path style="opacity:0.953" fill="#acbc9e" d="M 434.5,110.5 C 439.5,110.5 444.5,110.5 449.5,110.5C 449.5,114.167 449.5,117.833 449.5,121.5C 453.167,121.5 456.833,121.5 460.5,121.5C 460.5,125.5 460.5,129.5 460.5,133.5C 456.833,133.5 453.167,133.5 449.5,133.5C 449.08,140.284 449.58,146.95 451,153.5C 454.057,154.451 457.223,154.784 460.5,154.5C 460.5,158.833 460.5,163.167 460.5,167.5C 455.156,167.666 449.823,167.499 444.5,167C 439.895,166.285 436.729,163.785 435,159.5C 434.5,150.84 434.334,142.173 434.5,133.5C 432.5,133.5 430.5,133.5 428.5,133.5C 428.5,129.5 428.5,125.5 428.5,121.5C 430.5,121.5 432.5,121.5 434.5,121.5C 434.5,117.833 434.5,114.167 434.5,110.5 Z"/></g>
<g><path style="opacity:0.974" fill="#acbc9e" d="M 325.5,120.5 C 333.815,118.745 340.648,121.079 346,127.5C 347.563,124.272 350.063,122.105 353.5,121C 363.886,118.277 371.052,121.777 375,131.5C 375.5,143.495 375.667,155.495 375.5,167.5C 370.5,167.5 365.5,167.5 360.5,167.5C 360.899,157.102 360.399,146.768 359,136.5C 353.581,133.014 349.915,134.348 348,140.5C 347.5,149.494 347.334,158.494 347.5,167.5C 342.5,167.5 337.5,167.5 332.5,167.5C 332.899,157.102 332.399,146.768 331,136.5C 325.581,133.014 321.915,134.348 320,140.5C 319.5,149.494 319.334,158.494 319.5,167.5C 314.5,167.5 309.5,167.5 304.5,167.5C 304.5,152.167 304.5,136.833 304.5,121.5C 309.167,121.5 313.833,121.5 318.5,121.5C 318.343,122.873 318.51,124.207 319,125.5C 320.965,123.45 323.132,121.783 325.5,120.5 Z"/></g>
<g><path style="opacity:0.952" fill="#acbc9e" d="M 396.5,120.5 C 401.844,120.334 407.177,120.501 412.5,121C 417.188,121.92 420.688,124.42 423,128.5C 424.443,141.426 424.943,154.426 424.5,167.5C 419.833,167.5 415.167,167.5 410.5,167.5C 410.649,166.448 410.483,165.448 410,164.5C 408.421,166.041 406.587,167.208 404.5,168C 387.68,171.84 380.513,165.34 383,148.5C 384.99,144.51 388.157,142.01 392.5,141C 398.157,140.501 403.824,140.334 409.5,140.5C 409.939,133.815 406.939,131.315 400.5,133C 399.833,134 399.167,135 398.5,136C 393.844,136.665 389.177,137.165 384.5,137.5C 383.876,128.472 387.876,122.805 396.5,120.5 Z M 400.5,150.5 C 403.518,150.335 406.518,150.502 409.5,151C 408.583,154.884 406.083,156.718 402,156.5C 396.797,155.498 396.297,153.498 400.5,150.5 Z"/></g>
<g><path style="opacity:0.948" fill="#acbc9e" d="M 479.5,120.5 C 500.991,117.659 510.658,126.992 508.5,148.5C 499.167,148.5 489.833,148.5 480.5,148.5C 480.467,156.33 484.133,158.83 491.5,156C 492.357,155.311 493.023,154.478 493.5,153.5C 498.12,152.507 502.786,152.173 507.5,152.5C 507.935,160.567 504.268,165.734 496.5,168C 490.5,168.667 484.5,168.667 478.5,168C 472.075,166.573 467.908,162.74 466,156.5C 465.333,148.5 465.333,140.5 466,132.5C 468.443,126.051 472.943,122.051 479.5,120.5 Z M 484.5,131.5 C 489.414,130.782 492.414,132.782 493.5,137.5C 489.217,138.492 484.884,138.826 480.5,138.5C 480.571,135.348 481.905,133.014 484.5,131.5 Z"/></g>
<g><path style="opacity:0.952" fill="#acbc9e" d="M 550.5,120.5 C 555.844,120.334 561.177,120.501 566.5,121C 571.188,121.92 574.688,124.42 577,128.5C 578.443,141.426 578.943,154.426 578.5,167.5C 573.833,167.5 569.167,167.5 564.5,167.5C 564.649,166.448 564.483,165.448 564,164.5C 562.421,166.041 560.587,167.208 558.5,168C 541.68,171.84 534.513,165.34 537,148.5C 538.99,144.51 542.157,142.01 546.5,141C 552.157,140.501 557.824,140.334 563.5,140.5C 563.939,133.815 560.939,131.315 554.5,133C 553.833,134 553.167,135 552.5,136C 547.844,136.665 543.177,137.165 538.5,137.5C 537.876,128.472 541.876,122.805 550.5,120.5 Z M 554.5,150.5 C 557.518,150.335 560.518,150.502 563.5,151C 562.583,154.884 560.083,156.718 556,156.5C 550.797,155.498 550.297,153.498 554.5,150.5 Z"/></g>
<g><path style="opacity:1" fill="#acbc9e" d="M 280.5,121.5 C 285.5,121.5 290.5,121.5 295.5,121.5C 295.5,136.833 295.5,152.167 295.5,167.5C 290.5,167.5 285.5,167.5 280.5,167.5C 280.5,152.167 280.5,136.833 280.5,121.5 Z"/></g>
<g><path style="opacity:1" fill="#acbc9e" d="M 586.5,121.5 C 591.5,121.5 596.5,121.5 601.5,121.5C 601.5,136.833 601.5,152.167 601.5,167.5C 596.5,167.5 591.5,167.5 586.5,167.5C 586.5,152.167 586.5,136.833 586.5,121.5 Z"/></g>
<g><path style="opacity:0.954" fill="#acbc9e" d="M 514.5,153.5 C 519.833,153.5 525.167,153.5 530.5,153.5C 530.5,158.167 530.5,162.833 530.5,167.5C 525.167,167.5 519.833,167.5 514.5,167.5C 514.5,162.833 514.5,158.167 514.5,153.5 Z"/></g>
</svg>
