<?xml version="1.0" encoding="UTF-8"?>
<!DOCTYPE svg PUBLIC "-//W3C//DTD SVG 1.1//EN" "http://www.w3.org/Graphics/SVG/1.1/DTD/svg11.dtd">
<svg xmlns="http://www.w3.org/2000/svg" version="1.1" width="200px" height="200px" style="shape-rendering:geometricPrecision; text-rendering:geometricPrecision; image-rendering:optimizeQuality; fill-rule:evenodd; clip-rule:evenodd" xmlns:xlink="http://www.w3.org/1999/xlink">
<g><path style="opacity:0.937" fill="#acbc9e" d="M 80.5,-0.5 C 93.8333,-0.5 107.167,-0.5 120.5,-0.5C 162.066,10.066 188.399,36.066 199.5,77.5C 199.5,90.5 199.5,103.5 199.5,116.5C 188.349,162.986 159.349,190.653 112.5,199.5C 102.833,199.5 93.1667,199.5 83.5,199.5C 49.3038,192.161 24.1371,172.828 8,141.5C 4.36528,131.941 1.53195,122.274 -0.5,112.5C -0.5,103.167 -0.5,93.8333 -0.5,84.5C 9.08256,39.5838 36.0826,11.2505 80.5,-0.5 Z M 91.5,16.5 C 116.638,15.1578 138.971,22.3245 158.5,38C 188.385,74.4409 190.219,112.274 164,151.5C 128.367,188.212 89.2006,192.379 46.5,164C 19.1675,137.837 11.3342,106.671 23,70.5C 24.4545,67.0879 26.2879,63.9212 28.5,61C 52.4132,40.5789 79.4132,35.2456 109.5,45C 133.095,56.6847 147.095,75.518 151.5,101.5C 146.551,131.446 128.884,147.446 98.5,149.5C 74.6904,147.85 59.8571,135.516 54,112.5C 54.9494,87.8867 67.7827,76.0534 92.5,77C 105.446,79.614 113.446,87.2807 116.5,100C 114.007,113.186 106.34,118.186 93.5,115C 90.8333,113.667 88.8333,111.667 87.5,109C 90.9895,106.089 94.6562,103.422 98.5,101C 99.4506,100.282 99.6172,99.4491 99,98.5C 90.3678,90.2719 82.0345,90.6052 74,99.5C 69.763,105.968 69.4296,112.635 73,119.5C 87.6749,136.264 104.175,138.431 122.5,126C 131.775,117.084 134.942,106.251 132,93.5C 129.534,81.7486 123.034,72.9152 112.5,67C 89.5221,53.5579 68.0221,55.7246 48,73.5C 31.361,96.1047 31.361,118.771 48,141.5C 64.9071,162.254 86.7405,170.42 113.5,166C 133.809,162.424 148.975,151.59 159,133.5C 168.119,114.811 169.786,95.4778 164,75.5C 150.69,50.5147 130.523,34.0147 103.5,26C 91.5042,24.9651 79.5042,23.9651 67.5,23C 75.3698,19.8684 83.3698,17.7017 91.5,16.5 Z"/></g>
</svg>
